
<svg class="mountaineer mountaineer-img" width="884" height="643" viewBox="0 0 884 643" fill="none" xmlns="http://www.w3.org/2000/svg">
<path d="M884 643L706.877 469.318C706.877 469.318 583.996 465.304 576.011 462.076C568.026 458.848 410.473 345.502 410.473 345.502L239.267 329.114L114.772 378.939L0 422.101V643H884Z" fill="url(#paint0_linear)"/>
<path d="M706.877 469.318L751.561 519.473L714.821 643H884L706.877 469.318Z" fill="url(#paint1_linear)"/>
<path d="M410.473 345.502L515.356 462.035L379.939 643H603.111L536.085 505.403L576.011 462.076L410.473 345.502Z" fill="url(#paint2_linear)"/>
<path d="M239.267 329.114L57.3445 431.701L82.7896 441.095L199 371.5H240.5L121.971 451.234L285.5 377.076L326.5 379L163.8 471.056L67.1502 643H-6.10352e-05V422.101L239.267 329.114Z" fill="url(#paint3_linear)"/>
<path d="M221.89 349.102C221.89 349.102 222.924 357.917 226.607 359.158C230.289 360.399 236.619 355.64 240.55 361.103C244.066 365.945 241.377 372.566 241.377 372.566C241.377 372.566 215.311 375.628 198.348 372.111L201.699 349.557L221.89 349.102Z" fill="url(#paint4_linear)"/>
<path d="M308.114 355.227C308.114 355.227 309.148 364.041 312.83 365.283C316.512 366.524 322.843 361.765 326.773 367.228C330.29 372.069 327.601 378.691 327.601 378.691C327.601 378.691 301.535 381.753 284.572 378.235L286.806 356.592L308.114 355.227Z" fill="url(#paint5_linear)"/>
<path d="M270.587 181.255C270.587 181.255 246.714 242.708 241.666 258.806C236.619 274.903 224.289 329.239 223.958 350.84C223.958 350.84 208.65 355.103 200.251 349.764C200.251 349.764 201.203 314.962 199.589 296.091C197.975 277.221 212.746 256.902 213.739 248.626C214.732 240.349 209.395 195.077 219.986 171.82L241.046 162.633L270.587 181.255Z" fill="url(#paint6_linear)"/>
<path d="M361.693 68.3224L327.932 195.201C327.932 195.201 311.465 174.261 273.028 179.807C234.591 185.352 224.124 172.73 224.124 172.73L251.886 55.1628C251.886 55.1628 291.274 74.0745 306.376 70.8467C321.519 67.6603 339.723 60.3356 361.693 68.3224Z" fill="#E4F4F9"/>
<path d="M354.99 72.833L324.787 185.186C324.787 185.186 313.782 173.103 288.212 172.606C262.643 172.109 244.811 172.813 244.811 172.813L268.063 66.5015C268.063 66.5015 287.013 80.0336 307.575 76.6402C328.345 73.2469 335.172 67.5775 354.99 72.833Z" fill="url(#paint7_linear)"/>
<path fill-rule="evenodd" clip-rule="evenodd" d="M314.723 166.559C314.723 166.559 314.723 166.558 315.975 166.895C317.227 167.232 317.227 167.232 317.227 167.232L317.227 167.23L317.228 167.227L317.23 167.22L317.234 167.202C317.238 167.188 317.243 167.169 317.248 167.147C317.259 167.102 317.273 167.04 317.289 166.963C317.321 166.808 317.361 166.591 317.399 166.318C317.474 165.771 317.542 164.997 317.519 164.05L314.927 164.112C314.946 164.903 314.89 165.537 314.831 165.962C314.801 166.175 314.771 166.336 314.75 166.437C314.74 166.488 314.732 166.524 314.727 166.544L314.722 166.563C314.722 166.565 314.722 166.564 314.722 166.563L314.722 166.562L314.723 166.56L314.723 166.559Z" fill="black"/>
<path fill-rule="evenodd" clip-rule="evenodd" d="M341.682 91.4938C342.391 90.4926 342.911 89.5144 343.284 88.588L340.88 87.6184C340.582 88.3573 340.16 89.1579 339.567 89.9949L341.682 91.4938ZM334.458 97.7489C335.432 97.1844 336.312 96.6077 337.108 96.0238L335.574 93.9334C334.857 94.4596 334.055 94.9859 333.157 95.5065L333.155 95.5076C332.035 96.1599 330.58 96.6558 328.808 97.0125L329.32 99.5543C331.254 99.1648 333.008 98.5934 334.458 97.7489ZM288.781 100.057C291.939 99.8031 295.311 99.7542 298.765 99.8023L298.801 97.2098C295.306 97.1611 291.844 97.2096 288.574 97.4725L288.781 100.057ZM308.84 100.112C312.344 100.246 315.79 100.368 319.003 100.359L318.995 97.7658C315.843 97.7748 312.447 97.6549 308.938 97.5216L308.84 100.112ZM274.953 103.869C276.167 103.051 277.585 102.379 279.185 101.834L278.349 99.3795C276.581 99.9821 274.946 100.747 273.504 101.719C272.059 102.693 270.799 103.83 269.733 105.097L271.715 106.767C272.626 105.686 273.705 104.71 274.953 103.869ZM269.113 123.335C268.114 120.375 267.839 117.4 268.238 114.632L265.672 114.262C265.212 117.457 265.535 120.842 266.657 124.165L269.113 123.335ZM280.366 136.936C277.613 135.177 275.345 133.177 273.541 131.045L271.563 132.721C273.543 135.06 276.009 137.23 278.971 139.121L280.366 136.936ZM292.989 142.172C291.443 141.794 289.973 141.358 288.58 140.872L287.726 143.32C289.2 143.834 290.749 144.293 292.373 144.691L292.374 144.691C294.808 145.286 296.98 145.957 298.917 146.685L299.829 144.258C297.786 143.49 295.514 142.789 292.989 142.172ZM292.989 142.172L292.682 143.428L292.99 142.172C292.989 142.172 292.989 142.172 292.989 142.172ZM316.225 158.05C315.415 156.05 314.129 153.917 312.127 151.837L310.259 153.635C312.026 155.471 313.133 157.321 313.822 159.022L316.225 158.05Z" fill="black"/>
<path fill-rule="evenodd" clip-rule="evenodd" d="M341.573 83.3953C341.611 83.7999 341.631 84.4101 341.539 85.1773L344.114 85.4838C344.229 84.513 344.207 83.7161 344.153 83.1482C344.126 82.8643 344.091 82.6372 344.06 82.4737C344.045 82.392 344.031 82.326 344.019 82.2768C344.014 82.2521 344.009 82.2316 344.005 82.2154L343.999 82.1943L343.997 82.1861L343.996 82.1826L343.996 82.1811C343.996 82.1807 343.995 82.1796 342.744 82.5165C341.492 82.8535 341.492 82.8532 341.492 82.8528L341.492 82.8509L341.491 82.8486L341.49 82.8451C341.49 82.8433 341.489 82.8425 341.489 82.8427L341.492 82.8556C341.496 82.8719 341.503 82.9036 341.512 82.9499C341.529 83.0425 341.553 83.193 341.573 83.3953Z" fill="black"/>
<path d="M349.529 110.905C349.529 110.905 346.591 108.836 344.812 107.222C344.771 107.18 344.688 107.139 344.647 107.056C342.95 105.235 344.936 102.339 347.295 103.166L352.053 104.573L354.908 93.7726C356.976 91.1655 359.914 99.1937 361.072 103.787C362.314 108.712 364.382 116.119 360.865 119.14C360.907 119.14 350.977 112.188 349.529 110.905Z" fill="url(#paint8_linear)"/>
<path d="M300.584 179.972C300.584 179.972 298.391 238.694 298.349 255.578C298.267 271.469 304.059 328.866 309.769 352.868C310.306 355.103 308.776 357.296 306.459 357.544C301.287 358.123 292.516 358.661 286.185 356.965C286.185 356.965 278.242 321.128 271.167 303.54C264.05 285.953 270.174 262.282 268.684 254.047C267.195 245.853 243.57 203.519 246.839 178.151L269.429 163.833L300.584 179.972Z" fill="url(#paint9_linear)"/>
<path d="M246.797 178.193L249.693 176.372L276.752 177.531C276.752 177.531 290.654 200.663 284.572 234.349C278.531 268.034 274.849 295.388 290.737 316.079C303.107 332.218 299.508 350.757 297.315 358.165C293.509 358.206 289.495 357.916 286.144 357.006C286.144 357.006 278.2 321.169 271.125 303.581C264.009 285.994 270.132 262.323 268.643 254.088C267.153 245.894 243.529 203.56 246.797 178.193Z" fill="url(#paint10_linear)"/>
<path d="M294.708 39.4788L293.343 49.9899C292.722 54.7489 289.578 58.763 285.151 60.5425L282.544 61.577L281.055 70.6398C281.055 70.6398 260.781 73.371 255.775 66.2532C255.775 66.2532 260.45 37.12 260.244 29.1332C260.037 21.105 295.205 7.15914 294.708 39.4788Z" fill="#FBBB9F"/>
<path d="M290.943 34.9681L287.964 43.286C287.964 43.286 286.433 38.8995 282.089 42.0445C278.862 44.4033 280.103 51.8522 283.372 53.4661C283.372 53.4661 273.276 64.06 261.485 60.6252C250.686 57.4802 257.968 22.1396 260.781 16.0564C265.415 6.20736 300.79 7.035 290.943 34.9681Z" fill="#123842"/>
<path d="M297.521 26.3606C297.521 26.3606 297.025 6.20734 278.324 5.71076C259.623 5.21417 256.892 22.0982 256.892 22.0982C256.892 22.0982 278.489 32.2369 297.521 26.3606Z" fill="url(#paint11_linear)"/>
<path d="M275.262 3.35198C275.262 5.21418 276.752 6.70395 278.614 6.70395C280.475 6.70395 281.965 5.21418 281.965 3.35198C281.965 1.48977 280.475 0 278.614 0C276.752 0 275.262 1.48977 275.262 3.35198Z" fill="url(#paint12_linear)"/>
<path d="M297.977 131.762C297.977 131.762 295.991 161.516 301.204 174.923C306.417 188.331 258.133 196.898 219.945 179.02L220.524 103.125C220.524 103.125 212.622 56.3215 251.348 67.4947C264.588 71.3019 283.33 76.723 283.33 76.723C283.33 76.723 312.002 83.1787 335.834 129.568C335.834 129.568 343.53 116.036 348.66 110.532C350.274 108.794 352.797 108.298 354.907 109.332C357.473 110.532 360.741 113.057 361.527 118.23C361.693 119.306 361.527 120.423 361.031 121.416C357.638 128.161 342.33 157.915 336.744 154.729C330.455 151.211 297.977 131.762 297.977 131.762Z" fill="url(#paint13_linear)"/>
<path d="M321.477 121.913C318.374 113.098 308.527 102.049 294.708 93.4001C280.889 84.7926 287.261 78.3369 287.261 78.3369L291.439 80.0336C300.956 84.9167 317.34 96.6279 332.441 123.32L335.834 129.61L340.344 139.79C336.248 141.073 328.262 141.073 321.477 121.913Z" fill="url(#paint14_linear)"/>
<path d="M295.164 38.3201C288.42 39.603 271.58 41.5893 255.982 33.7681C254.327 32.9404 253.334 31.161 253.458 29.2574C253.583 27.1469 254.038 25.1605 254.865 23.2155C255.238 22.3465 256.23 21.8499 257.141 22.0982C262.974 23.588 283.868 28.5953 297.522 26.3192C297.977 26.2365 298.432 26.4848 298.598 26.8572C299.135 27.9745 299.922 30.4161 299.177 34.2233C298.804 36.3338 297.232 37.9477 295.164 38.3201Z" fill="url(#paint15_linear)"/>
<path d="M282.544 66.9981C282.544 66.9981 268.311 71.7571 255.61 63.1495C255.61 63.1495 251.514 62.3633 251.348 72.9572C251.307 74.6125 252.258 76.1436 253.748 76.8471C259.54 79.6197 274.518 85.4961 283.33 76.7644C283.372 76.7644 284.778 66.4188 282.544 66.9981Z" fill="url(#paint16_linear)"/>
<path d="M294.708 81.3578C294.708 81.3578 282.668 84.5029 275.345 96.5865L269.47 85.9926C269.47 85.9926 274.931 78.0058 281.344 76.1022C281.386 76.1022 289.04 74.5711 294.708 81.3578Z" fill="url(#paint17_linear)"/>
<path d="M258.63 76.9299C258.63 76.9299 279.855 80.5302 276.38 117.112C272.904 153.653 268.353 165.778 268.353 165.778C268.353 165.778 226.896 175.627 210.843 153.239C210.843 153.239 213.698 99.2764 227.062 85.3306C240.425 71.3847 258.63 76.9299 258.63 76.9299Z" fill="url(#paint18_linear)"/>
<path d="M236.329 119.306C236.329 119.306 264.215 120.837 255.61 167.64C255.61 167.64 253.127 170.247 249.486 169.296C245.845 168.344 236.329 119.306 236.329 119.306Z" fill="#A3C8CD"/>
<path d="M248.286 75.6884C248.286 75.6884 250.603 71.8399 251.927 67.6189C251.017 66.2118 244.852 64.2255 241.46 65.798C241.46 65.798 236.991 70.019 233.392 78.3369C233.392 78.3369 246.631 77.6334 248.286 75.6884Z" fill="url(#paint19_linear)"/>
<path d="M249.486 169.295C249.486 169.295 260.161 121.871 233.474 118.768C206.788 115.705 209.436 155.929 209.436 155.929C209.436 155.929 214.36 169.875 249.486 169.295Z" fill="#CAE3ED"/>
<path d="M271.125 86.3651C271.125 86.3651 257.347 89.4688 257.265 103.746C257.182 118.023 221.683 118.436 218.952 100.683C215.725 79.9094 254.699 60.708 271.125 86.3651Z" fill="#CAE3ED"/>
<path d="M247.086 109.374C247.086 109.374 245.556 114.257 245.225 118.974L239.763 118.105C239.763 118.105 240.218 112.974 241.749 108.505C241.708 108.505 245.514 108.091 247.086 109.374Z" fill="#A3C8CD"/>
<path d="M230.496 107.429C230.496 107.429 229.006 112.146 228.592 116.078L224.165 115.291C224.165 115.291 224.414 110.326 226.027 106.849C226.027 106.849 228.055 106.477 230.496 107.429Z" fill="#A3C8CD"/>
<path d="M281.386 141.073V125.223C281.386 125.223 273.938 116.078 260.906 123.816V143.142C260.906 143.142 271.787 156.508 281.386 141.073Z" fill="#69C8C5"/>
<path d="M281.386 125.223V131.596C281.386 131.596 271.166 140.576 260.906 131.265V123.775C273.897 116.078 281.386 125.223 281.386 125.223Z" fill="#00B2AC"/>
<path d="M260.906 123.816C261.733 119.43 281.137 117.816 281.386 125.223C281.386 132.713 260.906 133.169 260.906 123.816Z" fill="#088C93"/>
<path d="M273.855 118.974L273.649 124.851C273.649 124.851 271.249 126.796 268.849 124.851L268.973 118.974C269.015 118.974 271.456 116.988 273.855 118.974Z" fill="#69C8C5"/>
<path d="M280.931 153.777C280.931 153.777 289.619 153.777 297.108 143.39C297.108 143.39 298.929 150.549 297.853 154.977C297.108 158.122 289.413 165.571 276.297 163.502L280.931 153.777Z" fill="url(#paint20_linear)"/>
<path d="M281.386 141.073C279.607 144.632 269.718 150.425 260.906 142.066C260.906 142.066 253.251 166.316 270.587 166.895C283.661 167.35 284.696 152.66 281.386 141.073Z" fill="#CAE3ED"/>
<path d="M298.68 163.874C298.68 163.874 302.28 163.419 302.818 175.958C303.273 187.38 265.871 204.677 219.159 181.048C216.056 180.345 216.511 168.551 220.069 167.268C224.496 175.544 291.936 188.621 298.68 163.874Z" fill="url(#paint21_linear)"/>
<path d="M280.393 74.8608C280.352 74.8608 280.352 74.8608 280.31 74.8608C280.062 74.8194 279.855 74.5711 279.896 74.3228C280.724 69.15 280.145 68.074 280.062 67.9499C279.979 67.8671 279.896 67.7844 279.896 67.6602C280.269 67.5775 280.6 67.5361 280.889 67.4533C281.262 68.1154 281.551 69.8535 280.848 74.4469C280.807 74.6952 280.6 74.8608 280.393 74.8608Z" fill="url(#paint22_linear)"/>
<path d="M273.732 68.3224C273.773 68.6121 273.939 71.4261 273.318 74.6953C273.277 74.9436 273.07 75.0677 272.863 75.0677C272.821 75.0677 272.821 75.0677 272.78 75.0677C272.532 75.0263 272.366 74.778 272.408 74.4884C273.028 71.2192 272.821 68.3638 272.821 68.3638V68.3224C273.111 68.3224 273.401 68.3224 273.732 68.3224Z" fill="url(#paint23_linear)"/>
<path d="M266.532 67.7844C266.532 67.7844 265.622 69.8949 265.084 73.7849C265.043 74.0332 264.836 74.1987 264.629 74.1987C264.588 74.1987 264.588 74.1987 264.546 74.1987C264.298 74.1573 264.091 73.909 264.133 73.6607C264.629 70.0191 265.415 67.95 265.622 67.4948C265.953 67.5775 266.243 67.6189 266.574 67.7017C266.532 67.743 266.532 67.743 266.532 67.7844Z" fill="url(#paint24_linear)"/>
<path d="M260.367 65.9222C260.367 65.9222 259.168 67.3292 258.423 71.5088C258.381 71.7571 258.175 71.9226 257.968 71.9226C257.926 71.9226 257.926 71.9226 257.885 71.9226C257.637 71.8813 257.471 71.633 257.513 71.3847C258.216 67.4947 259.292 65.8394 259.581 65.4256C259.871 65.5497 260.161 65.7153 260.45 65.8394C260.409 65.8394 260.367 65.8808 260.367 65.9222Z" fill="url(#paint25_linear)"/>
<path d="M255.155 63.1909C255.444 63.1496 255.61 63.1909 255.61 63.1909C255.817 63.3151 255.982 63.4392 256.189 63.5634C256.148 63.6048 256.106 63.6461 256.065 63.6875C256.065 63.6875 254.037 65.0945 253.541 69.5224C253.5 69.7707 253.293 69.9363 253.086 69.9363H253.045C252.796 69.8949 252.589 69.688 252.631 69.3983C253.003 65.6325 254.451 63.8531 255.155 63.1909Z" fill="url(#paint26_linear)"/>
<path d="M298.68 163.874C298.68 163.874 302.28 163.419 302.818 175.958C303.273 187.38 265.871 204.677 219.159 181.048C216.056 180.345 216.511 168.551 220.069 167.268C224.496 175.544 291.936 188.621 298.68 163.874Z" fill="url(#paint27_linear)"/>
<path d="M281.386 125.223C281.386 125.223 282.048 110.491 271.704 110.491C261.526 110.491 260.906 124.189 260.906 124.189C260.409 129.941 277.166 134.12 281.386 125.223Z" fill="url(#paint28_linear)"/>
<defs>
<linearGradient id="paint0_linear" x1="442.006" y1="288.838" x2="442.006" y2="621.358" gradientUnits="userSpaceOnUse">
<stop stop-color="#FEC55E"/>
<stop offset="0.2602" stop-color="#B57985"/>
<stop offset="0.4221" stop-color="#8C4E9B"/>
<stop offset="1" stop-color="#2C269A"/>
</linearGradient>
<linearGradient id="paint1_linear" x1="884" y1="556.156" x2="706.86" y2="556.156" gradientUnits="userSpaceOnUse">
<stop stop-color="#1E1D61"/>
<stop offset="0.7609" stop-color="#28248C"/>
<stop offset="1" stop-color="#2C269A"/>
</linearGradient>
<linearGradient id="paint2_linear" x1="603.129" y1="494.245" x2="379.931" y2="494.245" gradientUnits="userSpaceOnUse">
<stop stop-color="#1E1D61"/>
<stop offset="0.7609" stop-color="#28248C"/>
<stop offset="1" stop-color="#2C269A"/>
</linearGradient>
<linearGradient id="paint3_linear" x1="318.997" y1="486.061" x2="0.0117894" y2="486.061" gradientUnits="userSpaceOnUse">
<stop stop-color="#1E1D61"/>
<stop offset="0.7609" stop-color="#28248C"/>
<stop offset="1" stop-color="#2C269A"/>
</linearGradient>
<linearGradient id="paint4_linear" x1="242.382" y1="361.467" x2="198.359" y2="361.467" gradientUnits="userSpaceOnUse">
<stop stop-color="#00C6FF"/>
<stop offset="1" stop-color="#0072FF"/>
</linearGradient>
<linearGradient id="paint5_linear" x1="328.618" y1="367.582" x2="284.595" y2="367.582" gradientUnits="userSpaceOnUse">
<stop stop-color="#00C6FF"/>
<stop offset="1" stop-color="#0072FF"/>
</linearGradient>
<linearGradient id="paint6_linear" x1="176.426" y1="259.434" x2="95.1179" y2="262.513" gradientUnits="userSpaceOnUse">
<stop stop-color="#000037"/>
<stop offset="1" stop-color="#1CB5E0"/>
</linearGradient>
<linearGradient id="paint7_linear" x1="342.772" y1="112.016" x2="233.324" y2="144.742" gradientUnits="userSpaceOnUse">
<stop stop-color="#B5DCEC"/>
<stop offset="1" stop-color="white"/>
</linearGradient>
<linearGradient id="paint8_linear" x1="363.017" y1="98.753" x2="351.742" y2="112.837" gradientUnits="userSpaceOnUse">
<stop stop-color="#F3DCFB"/>
<stop offset="1" stop-color="#679FE4"/>
</linearGradient>
<linearGradient id="paint9_linear" x1="252.77" y1="276.721" x2="477.615" y2="175.1" gradientUnits="userSpaceOnUse">
<stop stop-color="#000046"/>
<stop offset="1" stop-color="#1CB5E0"/>
</linearGradient>
<linearGradient id="paint10_linear" x1="270.767" y1="267.886" x2="418.603" y2="233.808" gradientUnits="userSpaceOnUse">
<stop stop-color="#000046"/>
<stop offset="1" stop-color="#1CB5E0"/>
</linearGradient>
<linearGradient id="paint11_linear" x1="361.531" y1="-14.5447" x2="335.293" y2="-4.05155" gradientUnits="userSpaceOnUse">
<stop stop-color="#F3DCFB"/>
<stop offset="1" stop-color="#679FE4"/>
</linearGradient>
<linearGradient id="paint12_linear" x1="284.647" y1="2.08443" x2="237.627" y2="12.0409" gradientUnits="userSpaceOnUse">
<stop stop-color="#F3DCFB"/>
<stop offset="1" stop-color="#679FE4"/>
</linearGradient>
<linearGradient id="paint13_linear" x1="333.003" y1="66.1707" x2="259.001" y2="135.435" gradientUnits="userSpaceOnUse">
<stop stop-color="#00C6FF"/>
<stop offset="1" stop-color="#0072FF"/>
</linearGradient>
<linearGradient id="paint14_linear" x1="331.83" y1="105.213" x2="187.545" y2="136.293" gradientUnits="userSpaceOnUse">
<stop stop-color="#00C6FF"/>
<stop offset="1" stop-color="#0072FF"/>
</linearGradient>
<linearGradient id="paint15_linear" x1="304.577" y1="30.295" x2="169.589" y2="32.2624" gradientUnits="userSpaceOnUse">
<stop stop-color="#F3DCFB"/>
<stop offset="1" stop-color="#679FE4"/>
</linearGradient>
<linearGradient id="paint16_linear" x1="262.168" y1="83.8891" x2="272.027" y2="62.3273" gradientUnits="userSpaceOnUse">
<stop stop-color="#00C6FF"/>
<stop offset="1" stop-color="#0072FF"/>
</linearGradient>
<linearGradient id="paint17_linear" x1="247.658" y1="93.9937" x2="328.557" y2="73.8755" gradientUnits="userSpaceOnUse">
<stop stop-color="#000046"/>
<stop offset="1" stop-color="#1CB5E0"/>
</linearGradient>
<linearGradient id="paint18_linear" x1="228.487" y1="119.337" x2="465.842" y2="151.361" gradientUnits="userSpaceOnUse">
<stop stop-color="#000046"/>
<stop offset="1" stop-color="#1CB5E0"/>
</linearGradient>
<linearGradient id="paint19_linear" x1="242.075" y1="90.8592" x2="243.616" y2="43.1118" gradientUnits="userSpaceOnUse">
<stop stop-color="#000046"/>
<stop offset="1" stop-color="#1CB5E0"/>
</linearGradient>
<linearGradient id="paint20_linear" x1="260.652" y1="160.311" x2="317.338" y2="147.58" gradientUnits="userSpaceOnUse">
<stop stop-color="#000046"/>
<stop offset="1" stop-color="#1CB5E0"/>
</linearGradient>
<linearGradient id="paint21_linear" x1="196.846" y1="216.976" x2="244.17" y2="185.433" gradientUnits="userSpaceOnUse">
<stop stop-color="#00C6FF"/>
<stop offset="1" stop-color="#0072FF"/>
</linearGradient>
<linearGradient id="paint22_linear" x1="281.767" y1="50.4726" x2="281.151" y2="60.3301" gradientUnits="userSpaceOnUse">
<stop stop-color="#00C6FF"/>
<stop offset="1" stop-color="#0072FF"/>
</linearGradient>
<linearGradient id="paint23_linear" x1="274.478" y1="50.017" x2="273.862" y2="59.8745" gradientUnits="userSpaceOnUse">
<stop stop-color="#00C6FF"/>
<stop offset="1" stop-color="#0072FF"/>
</linearGradient>
<linearGradient id="paint24_linear" x1="266.658" y1="49.5281" x2="266.042" y2="59.3856" gradientUnits="userSpaceOnUse">
<stop stop-color="#00C6FF"/>
<stop offset="1" stop-color="#0072FF"/>
</linearGradient>
<linearGradient id="paint25_linear" x1="260.158" y1="49.1218" x2="259.542" y2="58.9793" gradientUnits="userSpaceOnUse">
<stop stop-color="#00C6FF"/>
<stop offset="1" stop-color="#0072FF"/>
</linearGradient>
<linearGradient id="paint26_linear" x1="255.471" y1="48.8288" x2="254.855" y2="58.6863" gradientUnits="userSpaceOnUse">
<stop stop-color="#00C6FF"/>
<stop offset="1" stop-color="#0072FF"/>
</linearGradient>
<linearGradient id="paint27_linear" x1="265.079" y1="151.369" x2="255.836" y2="193.879" gradientUnits="userSpaceOnUse">
<stop stop-color="#00C6FF"/>
<stop offset="1" stop-color="#0072FF"/>
</linearGradient>
<linearGradient id="paint28_linear" x1="268.946" y1="105.332" x2="271.425" y2="126.292" gradientUnits="userSpaceOnUse">
<stop stop-color="white"/>
<stop offset="1"/>
</linearGradient>
</defs>
</svg>
