<svg width="553" height="198" viewBox="0 0 553 198" fill="none" xmlns="http://www.w3.org/2000/svg">
<path d="M127.849 146.552H163.58L169.442 84.5814H168.884L138.736 136.503C136.503 140.411 135.386 140.69 131.478 140.69H127.849V0H76.4862L0 145.994V146.552H70.9033V169.163C70.9033 172.513 70.6241 173.908 68.1118 176.421L49.6881 195.682V196.24H149.064V195.682L130.641 176.142C128.128 173.629 127.849 172.513 127.849 169.163V146.552ZM9.49099 140.69L70.9033 24.5649V140.69H9.49099Z" fill="white"/>
<g clip-path="url(#clip0)">
<path d="M373.442 99.1373C373.442 166.781 336.11 198 276.436 198C216.762 198 179.442 166.781 179.442 99.1373C179.442 31.4938 216.774 0 276.436 0C336.099 0 373.442 31.4938 373.442 99.1373ZM304.014 98.8627C304.014 31.7683 296.388 5.47966 276.493 5.47966C256.598 5.47966 248.984 31.7912 248.984 98.8627C248.984 165.934 256.609 192.52 276.493 192.52C296.377 192.52 303.957 165.957 303.957 98.8627H304.014Z" fill="white"/>
<path d="M276.527 82.7783C279.036 82.7785 281.515 83.3167 283.8 84.357L275.958 33.5872L269.129 84.4371C271.446 83.3502 273.971 82.7841 276.527 82.7783V82.7783Z" fill="white"/>
<path d="M276.527 118.242C273.898 118.239 271.303 117.641 268.936 116.491L275.958 168.577L283.709 116.686C281.451 117.707 279.003 118.237 276.527 118.242Z" fill="white"/>
<path d="M276.527 114.81C284.385 114.81 290.754 108.408 290.754 100.51C290.754 92.6125 284.385 86.2103 276.527 86.2103C268.67 86.2103 262.3 92.6125 262.3 100.51C262.3 108.408 268.67 114.81 276.527 114.81Z" fill="white"/>
</g>
<path d="M511.291 146.552H547.022L552.884 84.5814H552.326L522.178 136.503C519.945 140.411 518.828 140.69 514.92 140.69H511.291V0H459.928L383.442 145.994V146.552H454.345V169.163C454.345 172.513 454.066 173.908 451.554 176.421L433.13 195.682V196.24H532.506V195.682L514.083 176.142C511.57 173.629 511.291 172.513 511.291 169.163V146.552ZM392.933 140.69L454.345 24.5649V140.69H392.933Z" fill="white"/>
<defs>
<clipPath id="clip0">
<rect width="194" height="198" fill="white" transform="translate(179.442)"/>
</clipPath>
</defs>
</svg>
