<svg width="487" height="200" viewBox="0 0 487 200" fill="none" xmlns="http://www.w3.org/2000/svg">
<path d="M128.285 150.312H164.016L169.878 88.3413H169.32L139.172 140.263C136.939 144.171 135.822 144.45 131.914 144.45H128.285V3.75986H76.9222L0.436035 149.754V150.312H71.3393V172.923C71.3393 176.273 71.0601 177.668 68.5478 180.181L50.1241 199.442V200H149.5V199.442L131.077 179.901C128.564 177.389 128.285 176.273 128.285 172.923V150.312ZM9.92702 144.45L71.3393 28.3248V144.45H9.92702Z" fill="white"/>
<path d="M253.175 0.968384C223.585 0.968384 195.392 9.90108 176.689 18.8338L202.37 74.384H202.929L230.006 11.0177C230.843 9.06365 231.681 7.94706 233.356 7.66792C234.751 7.38876 235.868 7.38876 237.543 7.38876C249.825 7.38876 260.154 20.2295 260.154 51.2148C260.154 74.6631 254.292 92.2494 238.101 118.21C231.122 129.376 223.306 140.542 213.257 153.103L176.131 199.442V200H313.192L325.753 131.051H325.195L307.609 148.079C303.142 152.545 302.584 152.824 295.326 152.824H219.957L231.681 146.404C282.765 118.489 322.403 93.3659 322.403 53.1688C322.403 24.1376 300.909 0.968384 253.175 0.968384Z" fill="white"/>
<path d="M413.739 0.968384C384.149 0.968384 355.955 9.90108 337.253 18.8338L362.934 74.384H363.492L390.57 11.0177C391.407 9.06365 392.245 7.94706 393.919 7.66792C395.315 7.38876 396.432 7.38876 398.107 7.38876C410.389 7.38876 420.717 20.2295 420.717 51.2148C420.717 74.6631 414.855 92.2494 398.665 118.21C391.686 129.376 383.87 140.542 373.821 153.103L336.694 199.442V200H473.755L486.317 131.051H485.759L468.172 148.079C463.706 152.545 463.148 152.824 455.89 152.824H380.52L392.245 146.404C443.328 118.489 482.967 93.3659 482.967 53.1688C482.967 24.1376 461.473 0.968384 413.739 0.968384Z" fill="white"/>
</svg>
