<svg width="546" height="215" viewBox="0 0 546 215" fill="none" xmlns="http://www.w3.org/2000/svg">
<path d="M24.6445 62.6564L76.0075 64.8896C81.5904 65.1688 86.615 65.1688 91.6397 65.1688C122.067 65.1688 138.536 59.3067 141.328 30.8337L144.398 0.406738H143.84L135.745 7.9437C126.533 16.3181 113.134 18.2721 98.3392 18.2721C93.0354 18.2721 87.1733 17.993 81.5904 17.7138L21.5739 14.9224L15.1535 117.927L15.7118 118.207C26.8776 112.345 36.9269 110.111 45.8596 110.111C76.5657 110.111 89.6856 129.652 89.6856 157.845C89.6856 191.901 73.4951 209.208 59.8169 209.208H58.7004C53.1174 209.208 52.28 208.371 50.8843 205.3L24.9236 145.284H24.3653L0.916992 205.859C17.6658 211.721 42.2307 214.791 62.0501 214.791C112.855 214.791 151.098 196.647 151.098 148.075C151.098 113.74 127.091 89.7337 87.1733 89.7337C62.0501 89.7337 44.1847 96.154 21.5739 110.391L24.6445 62.6564Z" fill="white"/>
<path d="M257.967 209.208C239.823 209.208 231.449 185.202 231.449 114.019C231.449 43.1162 239.823 18.5513 257.967 18.5513C276.391 18.5513 284.766 42.5579 284.766 113.74C284.766 184.644 276.391 209.208 257.967 209.208ZM257.967 12.9683C203.813 12.9683 168.92 42.837 168.92 113.74C168.92 184.644 203.813 214.791 257.967 214.791C312.401 214.791 347.294 184.923 347.294 114.019C347.294 43.1162 312.401 12.9683 257.967 12.9683Z" fill="white"/>
<path d="M456.423 209.208C438.279 209.208 429.904 185.202 429.904 114.019C429.904 43.1162 438.279 18.5513 456.423 18.5513C474.847 18.5513 483.221 42.5579 483.221 113.74C483.221 184.644 474.847 209.208 456.423 209.208ZM456.423 12.9683C402.269 12.9683 367.376 42.837 367.376 113.74C367.376 184.644 402.269 214.791 456.423 214.791C510.857 214.791 545.75 184.923 545.75 114.019C545.75 43.1162 510.857 12.9683 456.423 12.9683Z" fill="white"/>
</svg>
