<svg class="logo-brand" width="207" height="47" viewBox="0 0 207 47" fill="none" xmlns="http://www.w3.org/2000/svg">
<path d="M46.0153 23.5326C46.0153 39.5894 37.1605 47 23.0063 47C8.85211 47 0 39.5894 0 23.5326C0 7.47579 8.85481 0 23.0063 0C37.1578 0 46.0153 7.47579 46.0153 23.5326ZM29.5475 23.4674C29.5475 7.54096 27.7388 1.30073 23.0198 1.30073C18.3008 1.30073 16.4948 7.54639 16.4948 23.4674C16.4948 39.3884 18.3035 45.6993 23.0198 45.6993C27.7361 45.6993 29.534 39.3939 29.534 23.4674H29.5475Z" fill="#00307B"/>
<path d="M49.2981 33.9438V17.3792C49.2981 16.7058 49.2495 16.5646 48.9147 16.1301L46.5255 12.6543V12.5592H62.772V12.6543L60.3828 16.1165C60.048 16.5483 60.0021 16.6922 60.0021 17.3657V33.7076C60.0021 42.2642 62.583 44.7651 66.8835 44.7651C70.9923 44.7651 73.8135 41.5445 73.8135 33.9493V22.46C73.8135 21.6915 73.7649 21.5476 73.287 20.7791L68.4601 12.6543V12.5592H80.1198V12.6543L75.3901 20.7791C74.9122 21.5476 74.8636 21.6915 74.8636 22.46V33.8651C74.8636 42.2832 71.8049 46.8452 63.1553 46.8452C54.1223 46.8316 49.2981 44.3795 49.2981 33.9438Z" fill="#00307B"/>
<path d="M101.196 42.4081L104.255 46.2532V46.351H86.5719V46.2532L89.6279 42.4081C90.0113 41.9274 90.0572 41.8324 90.0572 41.015V13.5775H88.9098C88.1458 13.5775 87.9541 13.6753 87.6221 14.2999L80.7893 26.6907H80.6948V12.5701H110.145V26.6907H110.051L103.202 14.289C102.856 13.6644 102.678 13.5775 101.911 13.5775H100.764V41.0042C100.764 41.8324 100.813 41.9274 101.196 42.4081Z" fill="#00307B"/>
<path d="M124.421 30.2969V41.5473C124.421 42.218 124.469 42.3619 124.804 42.7964L127.423 46.2532V46.351H110.707V46.2532L113.333 42.7937C113.668 42.3619 113.717 42.2153 113.717 41.5445V17.3792C113.717 16.7058 113.668 16.5646 113.333 16.1301L110.707 12.6543V12.5592H131.351C137.085 12.5592 142.435 14.5768 142.435 20.923C142.435 26.5957 138.089 29.6696 130.441 29.7185V29.8136L139.331 31.546L139.379 31.5922L142.103 42.1202C142.292 42.9349 142.533 43.2254 143.248 44.0917L145.114 46.2641V46.3619H131.829L128.149 30.7884C128.052 30.3539 127.957 30.3078 127.382 30.3078L124.421 30.2969ZM124.421 29.2867H126.953C129.677 29.2867 131.111 26.9297 131.111 21.5964C131.111 16.3066 129.726 13.5667 127.002 13.5667H125.233C124.515 13.5667 124.424 13.6156 124.424 14.4329L124.421 29.2867Z" fill="#00307B"/>
<path d="M142.676 46.351V46.2532L145.305 42.7937C145.637 42.3619 145.686 42.2153 145.686 41.5445V17.3792C145.686 16.7058 145.637 16.5646 145.305 16.1301L142.676 12.6543V12.5592H168.911V24.9121H168.816L161.409 14.289C161.025 13.7106 160.836 13.5667 160.118 13.5667H157.203C156.487 13.5667 156.393 13.6156 156.393 14.4329V29.0967H158.115C158.687 29.0967 158.83 29.0478 159.308 28.5536L164.375 23.1714H164.47V36.0049H164.375L159.306 30.6309C158.828 30.1503 158.685 30.1041 158.112 30.1041H156.39V44.4773C156.39 45.2919 156.487 45.3408 157.2 45.3408H161.023C161.741 45.3408 161.932 45.1969 162.313 44.6212L169.197 33.6723H169.294V46.3619L142.676 46.351Z" fill="#00307B"/>
<path d="M184.731 41.5473C184.731 42.218 184.777 42.3619 185.111 42.7964L187.741 46.2559V46.3537H171.003V46.2559L173.632 42.7964C173.967 42.3646 174.013 42.218 174.013 41.5473V17.3792C174.013 16.7058 173.967 16.5646 173.632 16.1301L171.014 12.6543V12.5592H187.752V12.6543L185.122 16.1165C184.787 16.5483 184.742 16.6922 184.742 17.3657L184.731 41.5473ZM193.523 46.3537H207V46.2559L204.514 43.5649C204.027 42.9506 203.577 42.3087 203.164 41.6423L192.795 22.9053L194.468 21.0316C195.47 19.9264 195.71 19.7825 197.144 18.8212L206.568 12.6543V12.5592H190.511V12.6543L193.858 18.7587C194.287 19.5272 194.287 19.625 193.761 20.2495L185.065 30.1421L193.523 46.3537Z" fill="#00307B"/>
<path d="M23.0279 19.6494C23.6229 19.6495 24.211 19.7772 24.753 20.0241L22.8929 7.97273L21.2731 20.0432C21.8226 19.7852 22.4215 19.6508 23.0279 19.6494Z" fill="#00307B"/>
<path d="M23.0279 28.0675C22.4043 28.0669 21.7888 27.9249 21.2272 27.652L22.8929 40.0157L24.7314 27.6982C24.1957 27.9405 23.6152 28.0664 23.0279 28.0675Z" fill="#00307B"/>
<path d="M23.0279 27.2528C24.8916 27.2528 26.4024 25.7331 26.4024 23.8584C26.4024 21.9838 24.8916 20.4641 23.0279 20.4641C21.1642 20.4641 19.6534 21.9838 19.6534 23.8584C19.6534 25.7331 21.1642 27.2528 23.0279 27.2528Z" fill="#00307B"/>
</svg>
