<svg xmlns="http://www.w3.org/2000/svg" xmlns:xlink="http://www.w3.org/1999/xlink" viewBox="0 0 3199.38 847.49"><defs><style>.cls-1{fill:url(#linear-gradient);}.cls-2{fill:#2c269a;}.cls-3{fill:url(#linear-gradient-2);}.cls-17,.cls-4{fill:#030108;}.cls-4{opacity:0.1;}.cls-5{fill:url(#linear-gradient-3);}.cls-6{fill:url(#linear-gradient-4);}.cls-7{fill:url(#linear-gradient-5);}.cls-8{fill:url(#linear-gradient-6);}.cls-9{fill:url(#linear-gradient-7);}.cls-10{fill:url(#linear-gradient-8);}.cls-11{fill:url(#linear-gradient-9);}.cls-12{fill:url(#linear-gradient-10);}.cls-13{fill:url(#linear-gradient-11);}.cls-14{fill:url(#linear-gradient-12);}.cls-15{fill:#fff;}.cls-15,.cls-17{opacity:0.2;}.cls-16{fill:url(#linear-gradient-13);}.cls-18{mask:url(#mask);}.cls-19{fill:#00307b;}</style><linearGradient id="linear-gradient" x1="1599.69" y1="847.49" x2="1599.69" y2="661.41" gradientUnits="userSpaceOnUse"><stop offset="0.23" stop-color="#fff"/><stop offset="0.3" stop-color="#e3e3e3"/><stop offset="0.55" stop-color="#838383"/><stop offset="0.75" stop-color="#3c3c3c"/><stop offset="0.89" stop-color="#111"/><stop offset="0.97"/></linearGradient><linearGradient id="linear-gradient-2" x1="2592.05" y1="-41.15" x2="2420.05" y2="844.85" gradientUnits="userSpaceOnUse"><stop offset="0" stop-color="#1e1d61"/><stop offset="0.76" stop-color="#28248c"/><stop offset="1" stop-color="#2c269a"/></linearGradient><linearGradient id="linear-gradient-3" x1="803.53" y1="307.9" x2="1137.53" y2="857.9" gradientUnits="userSpaceOnUse"><stop offset="0" stop-color="#fec55e"/><stop offset="0.26" stop-color="#b57985"/><stop offset="0.42" stop-color="#8c4e9b"/><stop offset="1" stop-color="#2c269a"/></linearGradient><linearGradient id="linear-gradient-4" y1="619.25" x2="616.75" y2="619.25" gradientUnits="userSpaceOnUse"><stop offset="0.4" stop-color="#1e1d61"/><stop offset="0.86" stop-color="#28248c"/><stop offset="1" stop-color="#2c269a"/></linearGradient><linearGradient id="linear-gradient-5" x1="660.75" y1="631.25" x2="974.7" y2="631.25" xlink:href="#linear-gradient-2"/><linearGradient id="linear-gradient-6" x1="842.59" y1="577.31" x2="1464.75" y2="577.31" xlink:href="#linear-gradient-2"/><linearGradient id="linear-gradient-7" x1="1440.75" y1="692.75" x2="1842.75" y2="692.75" xlink:href="#linear-gradient-2"/><linearGradient id="linear-gradient-8" x1="1757.27" y1="819.63" x2="1921.27" y2="119.63" xlink:href="#linear-gradient-2"/><linearGradient id="linear-gradient-9" x1="2397.6" y1="58.23" x2="2796.19" y2="882.23" xlink:href="#linear-gradient-3"/><linearGradient id="linear-gradient-10" x1="3039.92" y1="446.32" x2="3288.94" y2="866.36" xlink:href="#linear-gradient-2"/><linearGradient id="linear-gradient-11" x1="325.97" y1="434.55" x2="794.02" y2="896.6" xlink:href="#linear-gradient-3"/><linearGradient id="linear-gradient-12" x1="1444.26" y1="356.55" x2="1780.29" y2="854.6" xlink:href="#linear-gradient-3"/><linearGradient id="linear-gradient-13" x1="1971.05" y1="194.01" x2="2169.05" y2="864.01" xlink:href="#linear-gradient-3"/><mask id="mask" x="0" y="661.41" width="3199.38" height="186.08" maskUnits="userSpaceOnUse"><rect class="cls-1" y="661.41" width="3199.38" height="186.08"/></mask></defs><g id="Layer_2" data-name="Layer 2"><g id="Layer_1-2" data-name="Layer 1"><path class="cls-2" d="M3199.38,842.5V534.64L2944.75,440l-196-340-152,16-48-92-76-24V52l-68,36h-64l-176,160-144-124-96,64v48l-276,232-180-160-124,128-112,168c-132,8-260-184-260-184l-312,110-44-134h-128l-104,84h-180L0,664V842.5Z"/><path class="cls-3" d="M2493,842.5l327.71-149.75,46-298.75c-26-41.2-169.53-243.36-178-287.69l-92,9.69-48-92-76-24V52l-68,36h-64l-176,160-9.51,594.5Z"/><path class="cls-4" d="M2472.75,0l91.54,289.11L2670.75,352l-135,81.1,217,254.9s8,135.48-482,142L2396.3,543l43.26-189.31-98.81,28.42V88h64l68-36Z"/><path class="cls-5" d="M1290.75,610c20.23-35.57,15.83-64.57-3.22-88.17L1232.75,604c-122.49,7.42-241.52-157.36-258-181.15h0l-44,47.15,12,48-70,34,40,94L773.18,842.5h69.41L874.75,794S1199.75,770,1290.75,610Z"/><polygon class="cls-6" points="430.75 703.13 540.75 586 486.75 504 616.75 396 488.75 396 384.75 480 204.75 480 0 664 0 842.5 409.39 842.5 430.75 703.13"/><path class="cls-7" d="M773.18,842.5,912.75,646l-40-94,70-34-12-48,44-47.15c-1.28-1.85-2-2.85-2-2.85l-312,110,94.7,312.5Z"/><path class="cls-8" d="M874.75,794l-32.16,48.5h603L1440.75,682l-52-142,76-98V312.13L1344.75,436C1194.76,701.29,1049.41,785.11,874.75,794Z"/><polygon class="cls-9" points="1440.75 682 1440.75 543 1842.75 842.5 1445.61 842.5 1440.75 682"/><polygon class="cls-10" points="1924.75 188 2020.75 124 2056.75 356 1956.75 396 1931.32 842.5 1842.75 842.5 1648.75 468.17 1924.75 236 1924.75 188"/><path class="cls-11" d="M2670.75,352l-135,81.1c44.41,38.47,177.82,206.81,217,254.9,0,0-146-30.32-338.26,154.5h659.22l-151-250.5,42-52.57-20-99.43L2744.1,83.62,2472.75,0l91.54,289.11Z"/><path class="cls-12" d="M3104.75,610s31.88,168.32,94.63,226V534.64L2944.75,440l8.05,40S3026.75,510,3104.75,610Z"/><path class="cls-13" d="M616.75,396l-130,108,54,82-110,117.12L409.39,842.5H755.45C727.29,749.15,647.62,484,616.75,396Z"/><polygon class="cls-14" points="1541.22 372.42 1468.75 308 1464.75 442 1440.75 543 1717.75 842.5 1842.75 842.5 1648.75 468 1541.22 372.42"/><path class="cls-15" d="M1468.75,308l48,113.42,24.47,30.75-34.47,36h42l211.08,194.26C1644,451,1664.08,476.89,1468.75,308Z"/><path class="cls-4" d="M1648.75,468c42.47,82,131.11,253.14,174,335.93l-52-242.93-58-15,66-8Z"/><path class="cls-16" d="M2020.75,124l144,124c29.91,111.14,128.27,331.62,182,434.43l-38,160.07H1931.32L1956.75,396l100-40Z"/><polygon class="cls-17" points="2056.75 356 1956.75 396 1947.97 550.18 1921.51 375.5 2056.75 356"/><polygon class="cls-4" points="1328.35 577.32 1304.01 656.59 1328.35 656.59 1328.35 722.59 1364.35 649.95 1334.18 635.97 1364.35 607.1 1334.18 605.6 1349.35 508.1 1328.35 577.32"/><polygon class="cls-4" points="2281.75 213 2270.75 368 2286.75 337 2291.75 538 2305.75 315 2281.75 213"/><path class="cls-4" d="M369.79,553.44l143-107-77,84s38-27.8,25-6.9-117,184.65-117,184.65l77-149.75Z"/><g class="cls-18"><rect class="cls-19" y="661.41" width="3199.38" height="186.08"/></g></g></g></svg>