<svg xmlns="http://www.w3.org/2000/svg" viewBox="0 0 170.45 173.08"><defs><style>.cls-1{fill:#00307b;}</style></defs><g id="Layer_2" data-name="Layer 2"><g id="Layer_1-2" data-name="Layer 1"><path class="cls-1" d="M170.45,86.66c0,59.13-32.8,86.42-85.23,86.42S0,145.79,0,86.66,32.8,0,85.22,0,170.45,27.53,170.45,86.66Zm-61-.24c0-58.65-6.7-81.63-24.18-81.63s-24.17,23-24.17,81.63,6.7,81.87,24.17,81.87S109.4,145.07,109.4,86.42Z"/><path class="cls-1" d="M85.3,72.36a15.49,15.49,0,0,1,6.39,1.38L84.8,29.36l-6,44.45A15.45,15.45,0,0,1,85.3,72.36Z"/><path class="cls-1" d="M85.3,103.36a15.37,15.37,0,0,1-6.67-1.53l6.17,45.53L91.61,102A15.45,15.45,0,0,1,85.3,103.36Z"/><circle class="cls-1" cx="85.3" cy="87.86" r="12.5"/></g></g></svg>