<svg width="1440" height="657" viewBox="0 0 1440 657" fill="none" xmlns="http://www.w3.org/2000/svg">
<mask id="mask0" mask-type="alpha" maskUnits="userSpaceOnUse" x="0" y="0" width="1440" height="657">
<rect y="3.05176e-05" width="1440" height="657" fill="url(#paint0_linear)"/>
</mask>
<g mask="url(#mask0)">
<path opacity="0.68" d="M-18.8762 265.633C22.0057 265.633 55.6873 284.399 59.9275 308.532C63.6876 307.081 67.9279 306.114 72.5681 305.776V305.582C72.5681 295.184 86.4087 286.817 103.529 286.817C106.89 286.817 110.09 287.155 113.13 287.736C112.89 286.768 112.73 285.801 112.73 284.786C112.73 274.387 126.57 266.02 143.691 266.02C152.092 257.218 167.772 251.269 185.853 251.269C204.414 251.269 220.575 257.557 228.735 266.842C230.815 264.473 233.695 262.345 237.215 260.652C243.696 257.605 251.776 256.009 259.937 255.477C270.497 254.8 283.138 256.734 286.978 262.731C293.458 257.798 306.179 253.639 316.659 253.639C333.7 253.639 347.621 262.054 347.621 272.404C347.621 275.596 346.261 278.595 343.941 281.255C347.061 282.222 350.021 283.286 352.821 284.544C367.542 290.783 378.422 300.165 382.742 311.047C389.543 309.258 397.063 308.29 404.903 308.29C411.064 308.29 416.984 308.919 422.504 310.032C425.384 294.217 446.105 281.642 472.186 279.949C468.906 276.951 467.066 273.42 467.066 269.599C467.066 259.201 480.907 250.834 498.028 250.834C508.748 250.834 518.188 254.123 523.709 259.153C526.749 256.057 530.509 253.252 534.909 250.931C544.83 245.611 557.79 242.37 572.031 242.37C582.192 242.37 591.792 244.015 600.032 246.916C602.992 238.453 615.393 232.069 630.274 232.069C637.634 232.069 644.434 233.616 649.795 236.276C653.075 232.359 658.515 229.263 665.155 227.522C666.675 217.995 679.876 210.547 695.957 210.547C711.157 210.547 723.798 217.221 726.438 226.023C727.158 226.023 727.958 225.975 728.678 225.975C739.399 225.975 749.319 227.813 757.879 230.956C759.96 221.815 772.84 214.754 788.521 214.754C791.801 214.754 795.081 215.093 798.121 215.673C797.881 214.706 797.641 213.739 797.641 212.723C797.641 202.325 811.482 193.958 828.603 193.958C834.203 193.958 839.483 194.877 844.044 196.473C848.604 194.877 853.884 193.958 859.564 193.958C861.644 193.958 863.724 194.103 865.724 194.345C869.085 191.152 873.325 188.299 878.205 185.929C878.205 185.784 878.205 185.639 878.205 185.494C878.205 175.337 891.486 167.116 908.046 166.777C905.326 163.972 903.726 160.731 903.726 157.249C903.726 146.851 917.567 138.484 934.688 138.484C951.808 138.484 965.649 146.851 965.649 157.249C965.649 160.828 963.969 164.165 961.089 167.019C974.93 168.373 985.73 175.241 987.01 183.801C991.33 182.399 996.29 181.625 1001.49 181.625C1018.61 181.625 1032.45 189.992 1032.45 200.39C1032.45 203.582 1031.09 206.581 1028.85 209.241C1048.05 215.189 1062.45 226.023 1067.65 239.033C1074.45 237.244 1081.97 236.276 1089.81 236.276C1095.98 236.276 1101.9 236.857 1107.42 237.969C1110.22 222.154 1130.94 209.579 1157.1 207.886C1153.9 204.936 1151.98 201.357 1151.98 197.537C1151.98 187.187 1165.82 178.771 1182.94 178.771C1193.66 178.771 1203.1 182.06 1208.62 187.09C1218.38 177.079 1236.38 170.308 1256.94 170.308C1267.1 170.308 1276.7 171.952 1284.94 174.854C1287.9 166.39 1300.3 160.006 1315.19 160.006C1322.55 160.006 1329.35 161.554 1334.71 164.214C1337.99 160.296 1343.43 157.201 1350.07 155.46C1351.59 145.932 1364.79 138.484 1380.87 138.484C1396.07 138.484 1408.79 145.158 1411.35 153.96C1412.07 153.96 1412.87 153.96 1413.67 153.96C1440.23 153.96 1462.47 165.181 1468.23 180.271C1477.43 180.899 1485.35 183.946 1490.23 188.396C1500.31 182.447 1514.07 178.82 1529.12 178.82C1533.76 178.82 1538.32 179.158 1542.64 179.835C1541.92 178.239 1541.44 176.547 1541.44 174.757C1541.44 164.407 1555.28 155.992 1572.4 155.992C1589.52 155.992 1603.36 164.407 1603.36 174.757C1603.36 182.157 1631.28 737.716 1638 845.616H789.001L778.201 883.824H-46.5575C-76.6389 817.662 -98 334.359 -98 313.804C-98.08 287.107 -62.6382 265.633 -18.8762 265.633Z" fill="url(#paint1_linear)"/>
<path opacity="0.12" d="M-50.7412 683.929C-125.525 683.929 -186.212 245.542 -186.212 197.418C-186.212 149.295 -125.601 110.263 -50.7412 110.263C19.1427 110.263 76.6631 144.313 83.9001 188.084C90.3081 185.472 97.6208 183.682 105.536 183.054C105.536 182.957 105.536 182.86 105.536 182.764C105.536 163.949 129.208 148.714 158.458 148.714C164.188 148.714 169.691 149.294 174.817 150.407C174.365 148.666 174.063 146.876 174.063 145.038C174.063 126.224 197.735 110.989 226.985 110.989C236.635 110.989 245.681 112.682 253.446 115.584C261.211 112.682 270.257 110.989 279.907 110.989C283.526 110.989 287.069 111.231 290.461 111.666C296.191 105.862 303.428 100.687 311.796 96.3824C311.796 96.1406 311.72 95.8988 311.72 95.657C311.72 77.278 334.412 62.333 362.758 61.6559C358.083 56.5775 355.37 50.6769 355.37 44.341C355.37 25.5267 379.041 10.2915 408.291 10.2915C437.542 10.2915 461.213 25.5267 461.213 44.341C461.213 50.822 458.349 56.8677 453.448 62.0428C477.12 64.4611 495.514 76.9394 497.776 92.5132C505.164 89.9498 513.607 88.4988 522.654 88.4988C551.904 88.4988 575.576 103.734 575.576 122.548C575.576 128.352 573.314 133.817 569.318 138.606C602.187 149.391 626.839 169.028 635.659 192.63C647.269 189.39 660.085 187.6 673.504 187.6C683.982 187.6 694.084 188.713 703.508 190.696C708.332 162.015 743.84 139.234 788.469 136.139C782.966 130.77 779.724 124.338 779.724 117.373C779.724 98.5589 803.396 83.3237 832.646 83.3237C850.965 83.3237 867.098 89.321 876.597 98.4138C893.257 80.2283 924.015 67.9918 959.146 67.9918C976.56 67.9918 992.919 70.9904 1006.94 76.2139C1011.99 60.8336 1033.25 49.2743 1058.66 49.2743C1071.32 49.2743 1082.93 52.1279 1091.98 56.9161C1097.56 49.8063 1106.9 44.1475 1118.29 41.0038C1120.85 23.7372 1143.47 10.2432 1170.91 10.2432C1196.92 10.2432 1218.55 22.383 1222.93 38.2953C1224.21 38.2469 1225.49 38.2469 1226.85 38.2469C1272.3 38.2469 1310.3 58.6089 1320.1 85.9355C1335.78 87.0963 1349.35 92.6583 1357.72 100.639C1374.98 89.9014 1398.43 83.3237 1424.28 83.3237C1432.28 83.3237 1439.97 83.9524 1447.35 85.1616C1446.07 82.2113 1445.32 79.1642 1445.32 75.9721C1445.32 57.1578 1468.99 41.9227 1498.24 41.9227C1527.49 41.9227 1551.16 57.1578 1551.16 75.9721C1551.16 93.7707 1634.46 791.687 1607.48 793.235" fill="white"/>
<path opacity="0.68" d="M-30.462 492.642C-29.6327 484.42 -28.125 476.15 -25.0342 468.121C-22.3956 461.35 -17.7969 457.142 -7.77039 454.047C-5.73486 453.418 -3.54871 452.886 -1.36243 452.451C0.296021 440.117 16.3535 430.493 35.9542 430.493C46.0562 430.493 55.2532 433.104 62.0381 437.264C63.0935 424.544 79.3772 414.435 99.4302 414.435C120.162 414.435 136.973 425.221 136.973 438.521C136.973 441.278 136.219 443.938 134.862 446.405C156.951 453.611 172.103 468.315 172.103 485.339C172.103 492.014 169.766 498.301 165.62 503.912C169.314 503.138 173.31 502.703 177.38 502.703C180.396 502.703 183.261 502.944 186.125 503.38C186.125 503.138 186.05 502.944 186.05 502.703C186.05 489.402 202.861 478.616 223.593 478.616C242.741 478.616 258.497 487.806 260.759 499.704C272.218 494.045 286.541 490.708 302.146 490.708C324.762 490.708 344.815 497.818 357.179 508.7C358.008 487.854 381.604 470.684 412.589 466.912C411.91 465.074 411.458 463.188 411.458 461.253C411.458 447.953 428.269 437.167 449.001 437.167C466.34 437.167 480.889 444.76 485.187 455.014C497.324 442.923 518.432 434.942 542.405 434.942C549.492 434.942 556.277 435.619 562.685 436.925C568.942 429.235 581.456 423.963 595.93 423.963C607.992 423.963 618.697 427.639 625.557 433.298C637.092 427.446 651.717 423.963 667.548 423.963C686.018 423.963 702.754 428.703 715.042 436.345C715.494 428.848 715.947 422.222 724.616 415.402C734.04 408.003 748.363 403.65 763.215 403.65C768.416 403.65 773.467 404.182 778.141 405.101C776.709 402.102 775.955 398.958 775.955 395.669C775.955 377.967 798.27 363.603 825.786 363.603C830.158 363.603 834.305 363.99 838.3 364.667C840.486 338.791 873.808 318.236 914.592 318.236C940.374 318.236 963.141 326.458 977.013 339.033C977.013 338.598 976.937 338.114 976.937 337.679C976.937 319.977 999.252 305.612 1026.77 305.612C1028.65 305.612 1030.46 305.709 1032.27 305.806C1035.36 289.99 1056.32 277.802 1081.65 277.802C1107.36 277.802 1128.54 290.329 1131.18 306.435C1142.86 301.791 1156.58 299.083 1171.36 299.083C1183.27 299.083 1194.58 300.824 1204.61 303.968C1208.9 289.071 1229.18 277.802 1253.61 277.802C1281.12 277.802 1303.44 292.167 1303.44 309.869C1303.44 313.109 1302.69 316.253 1301.25 319.203C1307.66 317.269 1314.82 316.108 1322.44 316.108C1347.99 316.108 1369.03 328.489 1371.89 344.45C1382.45 340.146 1394.96 337.63 1408.38 337.63C1411.77 337.63 1415.09 337.776 1418.4 338.114C1426.02 302.13 1473.97 274.465 1531.94 274.465C1595.26 274.465 1646.53 307.499 1646.53 348.223C1646.53 388.946 1595.19 625.503 1531.94 625.503L762.838 669.951C545.496 632.806 314.284 684.316 90.9869 667.291C52.9917 664.389 10.9257 657.618 -8.90112 636.627C-18.9276 625.938 -21.5662 613.17 -23.7524 600.74C-30.0095 564.852 -34.2313 528.675 -30.462 492.642ZM474.331 478.907C474.105 479.003 473.954 479.148 473.728 479.245C473.954 479.39 474.18 479.535 474.331 479.68C474.331 479.439 474.331 479.197 474.331 478.907Z" fill="url(#paint2_linear)"/>
<path opacity="0.68" d="M570.675 550.923C562.76 541.975 567.132 530.126 577.385 522.194C587.638 514.262 602.564 509.474 617.416 505.604C635.056 500.961 652.923 501.542 669.357 496.173C665.362 491.385 663.1 485.92 663.1 480.116C663.1 461.301 686.772 446.066 716.022 446.066C724.993 446.066 733.436 447.517 740.9 450.081C741.955 442.632 746.931 435.329 754.545 429.719C756.203 428.461 758.088 427.3 760.124 426.285C777.99 417.24 803.245 421.497 818.775 430.638C820.282 431.508 829.027 436.635 828.274 437.989C836.114 424.108 864.082 418.304 885.04 420.384C886.774 420.578 888.508 420.819 890.167 421.11C895.368 405.778 916.477 394.315 941.882 394.315C950.853 394.315 959.297 395.766 966.76 398.329C967.815 390.881 972.791 383.578 980.405 377.967C982.063 376.71 983.948 375.549 985.984 374.533C1003.85 365.489 1029.11 369.745 1044.63 378.886C1046.14 379.757 1054.89 384.884 1054.13 386.238C1061.97 372.357 1089.94 366.553 1110.9 368.633C1135.17 371.099 1152.74 385.996 1152.74 401.473C1152.74 401.715 1152.66 401.957 1152.66 402.199C1161.03 406.503 1168.27 411.678 1174 417.482C1177.39 417.047 1180.93 416.805 1184.55 416.805C1194.2 416.805 1203.25 418.498 1211.01 421.4C1218.78 418.498 1227.83 416.805 1237.48 416.805C1266.73 416.805 1290.4 432.04 1290.4 450.854C1290.4 452.692 1290.1 454.482 1289.64 456.223C1294.77 455.159 1300.27 454.53 1306 454.53C1330.35 454.53 1350.78 465.122 1356.96 479.535C1365.63 482.776 1373.78 486.597 1381.09 490.95C1390.44 448.678 1446.83 416.128 1515.13 416.128C1589.91 416.128 1650.6 455.159 1650.6 503.283C1650.6 551.407 1589.99 989.793 1515.13 989.793L1360.58 916.519C1339.93 988.149 1315.5 1041.59 1289.34 1041.59C1255.79 1025.68 1222.25 1009.77 1188.7 993.856C1112.86 957.872 1037.02 921.936 961.181 885.952C880.14 847.55 799.174 809.099 718.133 770.697C691.672 758.17 663.779 740.662 632.87 733.455C604.374 726.829 577.385 717.785 548.587 711.449C518.508 704.774 488.051 698.825 458.499 691.184C440.482 686.492 422.69 681.123 407.764 673.191C392.837 665.26 380.851 654.474 377.533 642.189C375.498 634.692 378.514 625.309 389.595 622.601C400.753 619.892 412.287 625.551 421.032 630.775C417.263 623.036 416.358 614.524 420.504 606.882C424.651 599.24 434.3 592.614 446.588 590.631C458.801 588.697 473.2 592.179 478.854 599.434C479.382 588.6 481.719 577.573 488.73 567.706C495.741 557.839 507.953 549.134 523.785 545.264C539.39 541.298 558.915 543.136 570.675 550.923Z" fill="url(#paint3_linear)"/>
<path opacity="0.68" d="M-132.084 696.988C-104.266 691.184 -74.413 701.002 -65.4419 718.897C-63.9341 721.944 -63.1049 724.991 -62.9541 728.038C-56.4708 725.427 -49.4597 723.298 -41.8457 721.702C-17.2694 716.576 8.21143 718.22 29.7722 724.991C33.9939 715.705 44.2465 707.773 58.5701 703.517C54.8007 675.562 81.2616 648.67 124.458 639.626C125.74 639.384 126.946 639.142 128.228 638.9C124.76 622.843 139.536 607.027 164.263 601.852C190.422 596.387 218.391 604.754 229.096 620.666C241.459 621.392 252.994 624.923 261.739 630.581C268.147 624.246 277.796 619.216 289.783 616.701C313.982 611.67 339.689 618.442 351.902 632.081C362.757 624.294 376.855 618.2 393.44 614.766C426.912 607.801 462.042 613.315 486.543 627.341C491.217 616.797 503.732 607.898 521.146 604.271C548.964 598.467 578.817 608.285 587.788 626.18C591.105 632.758 591.105 639.529 588.467 645.768C632.417 639.819 677.047 654.474 695.366 680.785C703.357 677.012 712.479 673.966 722.43 671.886C735.246 669.226 748.288 668.403 760.877 669.129C757.937 644.898 771.959 621.344 798.043 604.561C791.937 600.788 787.187 596.048 784.398 590.535C775.352 572.639 790.655 553.438 818.398 547.634C826.916 545.845 835.661 545.555 843.954 546.522C838.602 531.287 850.136 515.761 871.47 508.748C864.309 504.831 858.73 499.607 855.564 493.465C846.517 475.569 861.821 456.368 889.563 450.564C917.381 444.761 947.234 454.579 956.206 472.474C959.221 478.471 959.447 484.662 957.487 490.369C984.777 485.388 1013.5 495.061 1022.32 512.569C1022.47 512.811 1022.55 513.053 1022.62 513.295C1032.65 515.713 1042 519.195 1050.21 523.597C1053.23 522.484 1056.47 521.565 1059.94 520.84C1069.14 518.905 1078.48 518.76 1087.3 519.969C1093.33 515.665 1101.1 512.279 1110.3 510.344C1138.11 504.541 1167.97 514.359 1176.94 532.254C1177.84 533.995 1178.37 535.736 1178.82 537.477C1183.2 535.446 1188.17 533.753 1193.6 532.641C1221.42 526.837 1251.27 536.655 1260.24 554.551C1260.32 554.647 1260.32 554.744 1260.39 554.841C1266.5 554.115 1272.68 554.115 1278.56 554.696C1278.56 554.696 1336.46 565.578 1298.77 622.843C1261.07 680.108 1575.36 588.89 1575.36 588.89C1624.44 726.297 1704.42 988.729 1649.01 1000.29L123.931 1433.26C97.47 1437.18 -157.641 756.671 -166.159 739.791C-175.13 721.944 -159.902 702.743 -132.084 696.988Z" fill="url(#paint4_linear)"/>
<path opacity="0.17" d="M4.51746 764.844C-19.8326 764.844 -39.584 492.11 -39.584 476.44C-39.584 460.769 -19.8326 448.049 4.51746 448.049C27.2844 448.049 46.0558 459.173 48.3928 473.441C60.2286 475.182 69.0488 482.002 69.0488 490.127C69.0488 492.207 68.4457 494.239 67.3903 496.076C71.8382 495.254 76.5123 494.867 81.4124 495.012C82.0909 495.012 82.7693 495.109 83.3724 495.109C83.9001 485.92 95.5851 478.568 109.984 478.568C124.685 478.568 136.671 486.258 136.671 495.738C136.671 502.799 129.962 508.893 120.463 511.505C123.554 515.616 125.137 520.259 124.911 525.193C124.76 528.191 123.855 531.045 122.423 533.705C124.082 533.511 125.74 533.415 127.474 533.415C135.766 533.415 143.154 535.833 148.055 539.654C151.824 539.025 155.744 538.638 159.815 538.638C184.768 538.638 205.047 551.649 205.047 567.754C205.047 570.221 204.52 572.639 203.615 574.912C205.5 574.622 207.46 574.477 209.495 574.477C212.661 574.477 215.677 574.864 218.542 575.493C220.125 571.478 223.97 568.045 229.096 565.723C226.91 563.74 225.553 561.322 225.553 558.71C225.553 552.036 233.921 546.667 244.249 546.667C254.577 546.667 262.945 552.084 262.945 558.71C262.945 561.322 261.663 563.74 259.402 565.723C266.111 568.722 270.559 573.703 270.785 579.362C274.63 578.008 279.002 577.234 283.601 577.234C298.301 577.234 310.288 584.924 310.288 594.404C310.288 597.451 309.006 600.304 306.895 602.771C314.51 604.851 321.068 608.236 325.893 612.493C329.285 610.413 333.884 609.107 338.935 609.107C340.292 609.107 341.574 609.204 342.855 609.397C344.363 603.738 352.052 599.434 361.25 599.434C367.582 599.434 373.161 601.465 376.553 604.561C381.529 600.837 388.012 597.934 395.325 596.242C395.174 595.661 395.099 595.081 395.099 594.452C395.099 587.778 403.466 582.409 413.795 582.409C424.123 582.409 432.491 587.826 432.491 594.452C432.491 595.613 432.189 596.725 431.737 597.789C434.903 598.854 437.843 600.208 440.557 601.707C443.497 600.982 446.739 600.546 450.056 600.546C464.756 600.546 476.743 608.236 476.743 617.716C476.743 618.925 476.517 620.134 476.14 621.295C477.12 621.247 478.175 621.198 479.155 621.198C481.794 621.198 484.432 621.392 486.92 621.682C486.92 621.537 486.92 621.392 486.92 621.198C486.92 614.524 495.288 609.155 505.616 609.155C515.944 609.155 524.312 614.572 524.312 621.198C524.312 625.89 520.166 629.904 514.135 631.936C516.924 634.112 519.186 636.579 520.844 639.19C524.011 635.515 530.192 633 537.203 633C537.354 623.617 549.19 616.023 563.815 616.023C576.028 616.023 586.356 621.343 589.447 628.55C594.272 625.503 600.906 623.617 608.143 623.617C610.932 623.617 613.571 623.907 616.134 624.391C616.134 624.149 616.058 623.859 616.058 623.617C616.058 616.942 624.426 611.574 634.754 611.574C636.187 611.574 637.544 611.67 638.901 611.864C638.675 610.896 638.448 609.929 638.448 608.914C638.448 603.835 641.916 599.289 647.344 596.145C640.559 594.307 635.81 590.051 635.81 585.021C635.81 578.346 644.178 572.978 654.506 572.978C657.521 572.978 660.386 573.461 662.949 574.284C666.794 565.771 676.519 558.903 689.184 555.566C688.204 554.067 687.601 552.471 687.601 550.73C687.601 544.055 695.969 538.687 706.297 538.687C713.836 538.687 720.319 541.54 723.259 545.7C727.028 542.411 732.456 540.041 738.864 539.122C738.261 537.961 737.96 536.655 737.96 535.349C737.96 528.675 746.328 523.306 756.656 523.306C766.984 523.306 775.352 528.723 775.352 535.349C775.352 536.268 775.201 537.187 774.824 538.058C782.363 534.43 791.711 532.254 801.812 532.254C815.382 532.254 827.595 536.123 835.888 542.217C838.3 538.977 842.899 536.51 848.477 535.64C847.573 533.947 847.12 532.109 847.12 530.223C847.12 520.743 863.178 513.44 877.878 513.44C892.579 513.44 921.226 529.836 921.226 539.315L966.383 657.279" fill="white"/>
</g>
<defs>
<linearGradient id="paint0_linear" x1="720" y1="3.05176e-05" x2="720" y2="657" gradientUnits="userSpaceOnUse">
<stop/>
<stop offset="1" stop-color="#C4C4C4" stop-opacity="0"/>
</linearGradient>
<linearGradient id="paint1_linear" x1="769.935" y1="649.363" x2="769.935" y2="81.1271" gradientUnits="userSpaceOnUse">
<stop stop-color="#C2D8D3" stop-opacity="0.7"/>
<stop offset="0.1322" stop-color="#D4E4E0" stop-opacity="0.7"/>
<stop offset="0.3906" stop-color="#F3F8F7" stop-opacity="0.7"/>
<stop offset="0.5351" stop-color="white" stop-opacity="0.7"/>
<stop offset="0.5737" stop-color="#FEFEFE" stop-opacity="0.6834"/>
<stop offset="1" stop-color="#F2F2F2" stop-opacity="0.5"/>
</linearGradient>
<linearGradient id="paint2_linear" x1="807.353" y1="558.411" x2="807.353" y2="82.4992" gradientUnits="userSpaceOnUse">
<stop stop-color="white"/>
<stop offset="0.0830246" stop-color="#FEFEFE" stop-opacity="0.9585"/>
<stop offset="1" stop-color="#F2F2F2" stop-opacity="0.5"/>
</linearGradient>
<linearGradient id="paint3_linear" x1="981.779" y1="395.608" x2="998.262" y2="612.704" gradientUnits="userSpaceOnUse">
<stop stop-color="white"/>
<stop offset="0.0830246" stop-color="#FEFEFE" stop-opacity="0.9585"/>
<stop offset="1" stop-color="#F2F2F2" stop-opacity="0.5"/>
</linearGradient>
<linearGradient id="paint4_linear" x1="749.586" y1="461.575" x2="749.586" y2="608.627" gradientUnits="userSpaceOnUse">
<stop stop-color="white"/>
<stop offset="0.0830246" stop-color="#FEFEFE" stop-opacity="0.9585"/>
<stop offset="1" stop-color="#F2F2F2" stop-opacity="0.5"/>
</linearGradient>
</defs>
</svg>
